if (_typeface_js && _typeface_js.loadFace) _typeface_js.loadFace({"glyphs":{"S":{"x_min":277.78125,"x_max":580.5625,"ha":858,"o":"m 580 981 b 543 1073 580 1020 566 1051 b 443 1106 518 1095 487 1106 b 381 1097 422 1106 400 1102 b 337 1072 365 1091 350 1083 b 309 1034 326 1062 316 1048 b 300 981 302 1019 300 1001 b 304 837 300 929 298 880 b 327 719 309 795 318 755 b 359 620 336 684 347 651 b 397 530 372 590 397 530 b 431 440 409 501 419 472 b 469 295 447 397 459 348 b 484 109 480 243 484 180 b 469 63 484 91 480 76 b 418 45 459 51 438 45 b 365 63 397 45 376 51 b 350 109 355 76 350 91 l 350 331 l 277 331 l 277 109 b 315 19 277 70 291 41 b 415 -13 340 -2 370 -13 b 476 -5 437 -13 458 -11 b 520 19 493 1 508 9 b 548 58 531 30 541 43 b 558 109 555 73 558 90 b 554 254 558 163 559 212 b 530 372 548 297 540 336 b 498 472 522 408 511 441 b 476 530 490 491 483 509 b 426 652 458 568 441 609 b 388 797 411 695 398 744 b 373 981 377 850 373 912 b 388 1027 373 1001 377 1016 b 440 1047 398 1040 419 1047 b 493 1027 461 1047 481 1040 b 509 981 502 1016 509 1001 l 509 761 l 580 761 l 580 981 "},"/":{"x_min":277.78125,"x_max":538.890625,"ha":817,"o":"m 277 0 l 469 1112 l 538 1112 l 347 0 l 277 0 "},"K":{"x_min":277.78125,"x_max":558.328125,"ha":836,"o":"m 558 1112 l 488 1112 l 372 573 l 347 573 l 347 1112 l 277 1112 l 277 0 l 347 0 l 347 504 l 372 504 l 488 0 l 558 0 l 434 537 l 441 573 l 558 1112 "},"7":{"x_min":277.78125,"x_max":538.890625,"ha":817,"o":"m 277 1052 l 458 1052 l 277 0 l 347 0 l 538 1111 l 277 1111 l 277 1052 "},"d":{"x_min":277.78125,"x_max":538.890625,"ha":817,"o":"m 277 1111 l 277 0 l 401 0 b 501 33 447 0 476 11 b 538 123 525 55 538 84 l 538 987 b 501 1077 538 1026 525 1056 b 401 1111 476 1100 447 1111 l 277 1111 m 347 59 l 347 1052 l 401 1052 b 451 1033 420 1051 440 1045 b 468 987 461 1022 468 1006 l 468 123 b 451 77 468 105 461 90 b 401 59 440 65 420 59 l 347 59 "},",":{"x_min":277.78125,"x_max":401.390625,"ha":679,"o":"m 401 50 b 351 100 401 77 379 100 b 300 50 323 100 300 77 b 326 6 300 30 311 15 b 322 -1 325 4 323 1 b 277 -58 302 -34 277 -58 b 390 18 277 -58 354 -38 b 401 50 397 27 401 37 "},"Y":{"x_min":277.78125,"x_max":575,"ha":853,"o":"m 505 1112 l 426 726 l 347 1112 l 277 1112 l 391 556 l 391 0 l 461 0 l 461 555 l 575 1112 l 505 1112 "},"E":{"x_min":277.78125,"x_max":500,"ha":778,"o":"m 500 1041 l 500 1112 l 277 1112 l 277 0 l 500 0 l 500 69 l 347 69 l 347 504 l 447 504 l 447 573 l 347 573 l 347 1041 l 500 1041 "},"y":{"x_min":277.78125,"x_max":575,"ha":853,"o":"m 505 1112 l 426 726 l 347 1112 l 277 1112 l 391 556 l 391 0 l 461 0 l 461 555 l 575 1112 l 505 1112 "},"\"":{"x_min":277.78125,"x_max":404.171875,"ha":682,"o":"m 277 1056 l 277 1191 l 327 1191 l 327 1056 l 277 1056 m 354 1056 l 354 1191 l 404 1191 l 404 1056 l 354 1056 "},"g":{"x_min":277.671875,"x_max":538.890625,"ha":817,"o":"m 538 681 l 538 997 b 498 1087 538 1036 522 1065 b 408 1120 473 1109 452 1120 b 350 1111 386 1120 368 1116 b 308 1087 333 1105 320 1097 b 283 1048 295 1076 288 1063 b 277 997 276 1034 277 1016 l 277 122 b 283 70 277 102 276 86 b 308 33 288 56 295 44 b 350 8 320 22 333 13 b 408 0 368 2 386 0 b 498 33 452 0 473 11 b 538 122 522 54 538 83 l 538 529 l 423 529 l 423 458 l 468 458 l 468 123 b 452 77 468 105 463 90 b 406 59 441 65 427 59 b 363 77 386 59 373 65 b 350 123 352 90 350 105 l 350 997 b 363 1041 350 1015 352 1030 b 406 1061 373 1054 386 1061 b 452 1041 427 1061 441 1054 b 468 997 463 1030 468 1015 l 468 681 l 538 681 "},"e":{"x_min":277.78125,"x_max":500,"ha":778,"o":"m 500 1041 l 500 1112 l 277 1112 l 277 0 l 500 0 l 500 69 l 347 69 l 347 504 l 447 504 l 447 573 l 347 573 l 347 1041 l 500 1041 "},"J":{"x_min":277.78125,"x_max":539,"ha":817,"o":"m 538 116 b 533 65 538 97 540 80 b 508 27 527 51 520 38 b 466 2 497 16 483 8 b 408 -5 450 -2 430 -5 b 318 27 363 -5 343 5 b 277 116 294 48 277 77 l 277 502 l 350 502 l 350 118 b 363 72 350 100 352 84 b 409 54 375 59 388 54 b 452 72 430 54 443 59 b 466 118 463 84 466 100 l 466 1111 l 538 1111 l 538 116 "},"|":{"x_min":277.78125,"x_max":347.21875,"ha":625,"o":"m 277 -97 l 277 1222 l 347 1222 l 347 -97 l 277 -97 "},"q":{"x_min":277.671875,"x_max":586.109375,"ha":864,"o":"m 529 68 b 538 118 534 83 538 98 l 538 993 b 498 1081 538 1031 522 1061 b 408 1115 473 1104 452 1115 b 350 1106 386 1115 368 1112 b 308 1081 333 1101 320 1093 b 283 1044 295 1070 288 1058 b 277 993 276 1029 277 1012 l 277 118 b 283 66 277 98 276 80 b 308 29 288 51 295 38 b 350 4 320 18 333 9 b 408 -5 368 -1 386 -5 b 491 22 448 -5 470 4 l 550 -22 l 586 25 l 529 68 m 350 991 b 363 1037 350 1009 352 1025 b 406 1055 373 1050 386 1055 b 452 1037 427 1055 441 1050 b 468 991 463 1025 468 1009 l 468 118 b 452 73 468 100 463 84 b 406 54 441 61 427 54 b 363 73 386 54 373 61 b 350 118 352 84 350 100 l 350 991 "},"b":{"x_min":277.78125,"x_max":538.890625,"ha":817,"o":"m 277 1111 l 277 0 l 401 0 b 501 33 447 0 476 11 b 538 123 525 55 538 84 l 538 450 b 501 540 538 488 525 519 b 497 544 500 541 498 543 b 501 548 498 545 500 547 b 538 633 523 569 537 597 b 538 987 538 636 538 987 b 501 1079 538 1026 525 1056 b 401 1111 476 1100 447 1111 l 277 1111 m 347 1052 l 401 1052 b 451 1033 420 1051 440 1045 b 468 987 461 1022 468 1006 l 468 638 b 466 629 468 637 466 630 b 451 593 465 615 459 602 b 401 573 440 580 420 575 l 347 573 l 347 1052 m 347 59 l 347 504 b 404 504 347 504 404 504 b 451 484 423 502 440 497 b 468 440 461 473 468 458 l 468 123 b 451 77 468 105 461 90 b 401 59 440 65 420 59 l 347 59 "},"D":{"x_min":277.78125,"x_max":538.890625,"ha":817,"o":"m 277 1111 l 277 0 l 401 0 b 501 33 447 0 476 11 b 538 123 525 55 538 84 l 538 987 b 501 1077 538 1026 525 1056 b 401 1111 476 1100 447 1111 l 277 1111 m 347 59 l 347 1052 l 401 1052 b 451 1033 420 1051 440 1045 b 468 987 461 1022 468 1006 l 468 123 b 451 77 468 105 461 90 b 401 59 440 65 420 59 l 347 59 "},"z":{"x_min":277.78125,"x_max":538.890625,"ha":817,"o":"m 538 1112 l 277 1112 l 277 1041 l 456 1041 l 277 0 l 538 0 l 538 69 l 359 69 l 538 1111 l 538 1112 "},"w":{"x_min":277.78125,"x_max":772.21875,"ha":1050,"o":"m 702 1112 l 626 363 l 559 1112 l 490 1112 l 423 363 l 347 1112 l 277 1112 l 391 0 l 461 0 l 525 720 l 588 0 l 658 0 l 772 1112 l 702 1112 "},"$":{"x_min":277.15625,"x_max":569.96875,"ha":847,"o":"m 458 1109 b 484 1093 469 1106 477 1101 b 498 1047 494 1080 498 1065 l 498 825 l 569 825 l 569 1048 b 565 1100 569 1068 570 1084 b 540 1137 558 1113 551 1126 b 497 1162 527 1148 513 1155 b 458 1169 486 1166 472 1168 l 458 1220 l 388 1220 l 388 1169 b 350 1162 375 1168 361 1166 b 306 1137 333 1155 319 1148 b 281 1100 295 1126 288 1113 b 277 1048 276 1084 277 1068 l 277 861 b 277 830 277 861 276 847 l 277 818 b 281 777 277 804 279 787 b 304 711 287 754 294 730 b 336 654 313 690 325 670 b 373 601 348 636 373 601 b 388 584 376 598 381 591 l 388 112 b 362 129 377 115 369 120 b 348 173 352 140 348 155 l 348 395 l 277 395 l 277 202 b 283 122 277 183 276 137 b 306 83 290 108 295 94 b 350 59 319 73 333 65 b 388 51 361 55 375 52 l 388 0 l 458 0 l 458 51 b 497 59 472 52 486 55 b 540 83 513 65 527 73 b 563 122 551 94 558 108 b 569 381 570 137 569 362 b 565 443 570 404 569 425 b 544 511 559 468 554 490 b 506 562 534 530 518 544 b 458 615 502 568 480 591 l 458 1109 m 348 1047 b 362 1093 348 1065 352 1080 b 388 1109 369 1101 377 1106 l 388 706 b 365 754 379 722 370 737 b 348 861 355 784 348 820 l 348 1047 m 458 504 b 483 466 470 488 480 475 b 498 361 493 436 498 400 l 498 173 b 484 129 498 155 494 140 b 458 112 477 120 469 115 l 458 504 "},"\\":{"x_min":277.78125,"x_max":645.828125,"ha":924,"o":"m 576 0 l 277 1112 l 347 1112 l 645 0 l 576 0 "},"~":{"x_min":0,"x_max":0,"ha":833},"-":{"x_min":277.78125,"x_max":572.21875,"ha":850,"o":"m 277 570 l 572 570 l 572 504 l 277 504 l 277 570 "},"Q":{"x_min":277.671875,"x_max":586.109375,"ha":864,"o":"m 529 68 b 538 118 534 83 538 98 l 538 993 b 498 1081 538 1031 522 1061 b 408 1115 473 1104 452 1115 b 350 1106 386 1115 368 1112 b 308 1081 333 1101 320 1093 b 283 1044 295 1070 288 1058 b 277 993 276 1029 277 1012 l 277 118 b 283 66 277 98 276 80 b 308 29 288 51 295 38 b 350 4 320 18 333 9 b 408 -5 368 -1 386 -5 b 491 22 448 -5 470 4 l 550 -22 l 586 25 l 529 68 m 350 991 b 363 1037 350 1009 352 1025 b 406 1055 373 1050 386 1055 b 452 1037 427 1055 441 1050 b 468 991 463 1025 468 1009 l 468 118 b 452 73 468 100 463 84 b 406 54 441 61 427 54 b 363 73 386 54 373 61 b 350 118 352 84 350 100 l 350 991 "},"M":{"x_min":277.78125,"x_max":620.828125,"ha":899,"o":"m 450 284 l 347 1112 l 277 1112 l 277 0 l 347 0 l 347 541 l 413 0 l 484 0 l 551 541 l 551 0 l 620 0 l 620 1112 l 551 1112 l 450 284 "},"C":{"x_min":277.671875,"x_max":538.890625,"ha":817,"o":"m 468 123 b 452 77 468 105 463 90 b 406 59 441 65 427 59 b 363 77 386 59 373 65 b 350 123 352 90 350 105 l 350 997 b 363 1041 350 1015 352 1030 b 406 1061 373 1054 386 1061 b 452 1041 427 1061 441 1054 b 468 997 463 1030 468 1015 l 468 681 l 538 681 l 538 997 b 498 1087 538 1036 522 1065 b 408 1120 473 1109 452 1120 b 350 1111 386 1120 368 1116 b 308 1087 333 1105 320 1097 b 283 1048 295 1076 288 1063 b 277 997 276 1034 277 1016 l 277 122 b 283 70 277 102 276 86 b 308 33 288 56 295 44 b 350 8 320 22 333 13 b 408 0 368 2 386 0 b 498 33 452 0 473 11 b 538 122 522 54 538 83 l 538 438 l 468 438 l 468 123 "},"[":{"x_min":277.78125,"x_max":408.328125,"ha":686,"o":"m 408 1098 l 408 1172 l 277 1172 l 277 -51 l 408 -51 l 408 22 l 351 22 l 351 1098 l 408 1098 "},"L":{"x_min":277.78125,"x_max":497.21875,"ha":775,"o":"m 347 1112 l 277 1112 l 277 0 l 497 0 l 497 69 l 347 69 l 347 1112 "},"!":{"x_min":277.78125,"x_max":373.609375,"ha":651,"o":"m 359 1112 l 359 184 l 291 184 l 291 1112 l 359 1112 m 277 44 b 325 93 277 70 298 93 b 373 44 352 93 373 70 b 325 -4 373 18 352 -4 b 277 44 298 -4 277 18 "}," ":{"x_min":0,"x_max":0,"ha":556},"X":{"x_min":277.78125,"x_max":575,"ha":853,"o":"m 505 1112 l 426 726 l 347 1112 l 277 1112 l 391 555 l 277 0 l 347 0 l 426 384 l 505 0 l 575 0 l 461 555 l 575 1112 l 505 1112 "},"P":{"x_min":277.78125,"x_max":538.890625,"ha":817,"o":"m 277 1111 l 277 0 l 347 0 l 347 504 l 401 504 b 501 537 447 504 476 515 b 538 627 525 559 538 588 l 538 987 b 501 1077 538 1026 525 1056 b 401 1111 476 1100 447 1111 l 277 1111 m 468 638 b 451 593 468 619 461 604 b 401 573 440 580 420 575 l 347 573 l 347 1052 l 401 1052 b 451 1033 420 1051 440 1045 b 468 987 461 1022 468 1006 l 468 638 "},"%":{"x_min":277.78125,"x_max":854.171875,"ha":1132,"o":"m 277 -27 l 784 1140 l 854 1140 l 347 -27 l 277 -27 m 447 984 b 376 913 447 945 415 913 b 305 984 337 913 305 945 b 376 1056 305 1025 337 1056 b 447 984 415 1056 447 1025 m 826 126 b 755 55 826 87 794 55 b 684 126 716 55 684 87 b 755 197 684 165 716 197 b 826 126 794 197 826 165 "},"#":{"x_min":277.78125,"x_max":779.171875,"ha":1057,"o":"m 779 663 l 652 663 l 729 1112 l 659 1112 l 581 663 l 512 663 l 588 1112 l 519 1112 l 441 663 l 302 663 l 302 597 l 430 597 l 413 504 l 277 504 l 277 436 l 402 436 l 327 0 l 397 0 l 473 436 l 543 436 l 468 0 l 538 0 l 613 436 l 754 436 l 754 504 l 625 504 l 640 597 l 779 597 l 779 663 m 484 504 l 500 597 l 570 597 l 554 504 l 484 504 "},"_":{"x_min":277.78125,"x_max":572.21875,"ha":850,"o":"m 277 66 l 572 66 l 572 0 l 277 0 l 277 66 "},"+":{"x_min":277.78125,"x_max":673.609375,"ha":951,"o":"m 509 570 l 509 736 l 443 736 l 443 570 l 277 570 l 277 504 l 443 504 l 443 340 l 509 340 l 509 504 l 673 504 l 673 570 l 509 570 "},")":{"x_min":277.78125,"x_max":409.71875,"ha":688,"o":"m 337 70 b 323 25 337 52 334 37 b 277 6 312 12 298 6 b 279 -52 279 -52 277 6 b 369 -19 323 -52 344 -41 b 409 69 393 1 409 30 l 409 1047 b 369 1137 409 1086 393 1115 b 279 1169 344 1158 323 1169 b 277 1111 277 1111 279 1169 b 323 1091 298 1111 312 1104 b 337 1045 334 1080 337 1065 l 337 70 "},"'":{"x_min":277.78125,"x_max":327.78125,"ha":606,"o":"m 277 1056 l 277 1191 l 327 1191 l 327 1056 l 277 1056 "},"a":{"x_min":277.78125,"x_max":541.671875,"ha":819,"o":"m 541 0 l 444 1112 l 375 1112 l 277 0 l 347 0 l 363 190 l 455 190 l 472 0 l 541 0 m 409 711 l 450 259 l 370 259 l 409 711 "},"T":{"x_min":277.78125,"x_max":538.890625,"ha":817,"o":"m 277 1111 l 277 1041 l 373 1041 l 373 0 l 443 0 l 443 1041 l 538 1041 l 538 1111 l 277 1111 "},"=":{"x_min":277.78125,"x_max":673.609375,"ha":951,"o":"m 277 640 l 673 640 l 673 573 l 277 573 l 277 640 m 277 494 l 673 494 l 673 427 l 277 427 l 277 494 "},"N":{"x_min":277.78125,"x_max":538.890625,"ha":817,"o":"m 469 408 l 347 1112 l 277 1112 l 277 0 l 347 0 l 347 704 l 469 0 l 538 0 l 538 1112 l 469 1112 l 469 408 "},"2":{"x_min":277.671875,"x_max":539.046875,"ha":817,"o":"m 538 993 b 533 1044 538 1012 540 1030 b 508 1083 527 1059 520 1072 b 466 1106 497 1093 483 1101 b 408 1116 448 1112 430 1116 b 350 1106 386 1116 368 1112 b 308 1083 333 1101 320 1093 b 283 1044 295 1072 288 1059 b 277 993 276 1030 277 1012 l 277 770 l 350 770 l 350 993 b 363 1037 350 1011 352 1026 b 406 1056 373 1050 386 1056 b 408 1056 406 1056 408 1056 b 409 1056 408 1056 409 1056 b 452 1037 430 1056 443 1050 b 466 993 463 1026 466 1011 l 466 991 b 450 806 466 922 461 859 b 412 662 440 754 427 705 b 362 540 397 619 380 577 b 340 481 355 519 348 501 b 304 381 327 451 312 418 b 281 263 294 345 287 306 b 277 69 277 225 277 70 l 277 0 l 538 0 l 538 69 l 350 69 b 365 305 350 141 355 255 b 406 450 375 358 391 406 b 441 540 419 481 429 511 b 479 630 441 540 468 600 b 511 729 491 661 502 694 b 534 847 520 765 529 805 b 538 991 540 890 538 991 l 538 993 "},"j":{"x_min":277.78125,"x_max":539,"ha":817,"o":"m 538 116 b 533 65 538 97 540 80 b 508 27 527 51 520 38 b 466 2 497 16 483 8 b 408 -5 450 -2 430 -5 b 318 27 363 -5 343 5 b 277 116 294 48 277 77 l 277 502 l 350 502 l 350 118 b 363 72 350 100 352 84 b 409 54 375 59 388 54 b 452 72 430 54 443 59 b 466 118 463 84 466 100 l 466 1111 l 538 1111 l 538 116 "},"Z":{"x_min":277.78125,"x_max":538.890625,"ha":817,"o":"m 538 1112 l 277 1112 l 277 1041 l 456 1041 l 277 0 l 538 0 l 538 69 l 359 69 l 538 1111 l 538 1112 "},"u":{"x_min":277.671875,"x_max":538.890625,"ha":817,"o":"m 468 120 b 452 75 468 102 463 87 b 406 56 441 62 427 56 b 363 75 386 56 373 62 b 350 120 352 87 350 102 l 350 1113 l 277 1113 l 277 119 b 283 68 277 100 276 83 b 308 30 288 54 295 41 b 350 5 320 19 333 11 b 408 -2 368 0 386 -2 b 498 30 452 -2 473 8 b 538 119 522 51 538 80 l 538 1113 l 468 1113 l 468 120 "},"1":{"x_min":277.78125,"x_max":463.890625,"ha":742,"o":"m 277 1041 l 306 988 l 393 1041 l 393 0 l 463 0 l 463 1111 l 393 1111 l 277 1041 "},"˜":{"x_min":305.5625,"x_max":512.5,"ha":833,"o":"m 512 1152 l 305 1152 l 305 1222 l 512 1222 l 512 1152 "},"k":{"x_min":277.78125,"x_max":558.328125,"ha":836,"o":"m 558 1112 l 488 1112 l 372 573 l 347 573 l 347 1112 l 277 1112 l 277 0 l 347 0 l 347 504 l 372 504 l 488 0 l 558 0 l 434 537 l 441 573 l 558 1112 "},"<":{"x_min":0,"x_max":0,"ha":833},"t":{"x_min":277.78125,"x_max":538.890625,"ha":817,"o":"m 277 1111 l 277 1041 l 373 1041 l 373 0 l 443 0 l 443 1041 l 538 1041 l 538 1111 l 277 1111 "},"W":{"x_min":277.78125,"x_max":772.21875,"ha":1050,"o":"m 702 1112 l 626 363 l 559 1112 l 490 1112 l 423 363 l 347 1112 l 277 1112 l 391 0 l 461 0 l 525 720 l 588 0 l 658 0 l 772 1112 l 702 1112 "},"v":{"x_min":277.78125,"x_max":575,"ha":853,"o":"m 505 1112 l 426 338 l 347 1112 l 277 1112 l 391 0 l 461 0 l 575 1112 l 505 1112 "},">":{"x_min":0,"x_max":0,"ha":833},"s":{"x_min":277.78125,"x_max":580.5625,"ha":858,"o":"m 580 981 b 543 1073 580 1020 566 1051 b 443 1106 518 1095 487 1106 b 381 1097 422 1106 400 1102 b 337 1072 365 1091 350 1083 b 309 1034 326 1062 316 1048 b 300 981 302 1019 300 1001 b 304 837 300 929 298 880 b 327 719 309 795 318 755 b 359 620 336 684 347 651 b 397 530 372 590 397 530 b 431 440 409 501 419 472 b 469 295 447 397 459 348 b 484 109 480 243 484 180 b 469 63 484 91 480 76 b 418 45 459 51 438 45 b 365 63 397 45 376 51 b 350 109 355 76 350 91 l 350 331 l 277 331 l 277 109 b 315 19 277 70 291 41 b 415 -13 340 -2 370 -13 b 476 -5 437 -13 458 -11 b 520 19 493 1 508 9 b 548 58 531 30 541 43 b 558 109 555 73 558 90 b 554 254 558 163 559 212 b 530 372 548 297 540 336 b 498 472 522 408 511 441 b 476 530 490 491 483 509 b 426 652 458 568 441 609 b 388 797 411 695 398 744 b 373 981 377 850 373 912 b 388 1027 373 1001 377 1016 b 440 1047 398 1040 419 1047 b 493 1027 461 1047 481 1040 b 509 981 502 1016 509 1001 l 509 761 l 580 761 l 580 981 "},"B":{"x_min":277.78125,"x_max":538.890625,"ha":817,"o":"m 277 1111 l 277 0 l 401 0 b 501 33 447 0 476 11 b 538 123 525 55 538 84 l 538 450 b 501 540 538 488 525 519 b 497 544 500 541 498 543 b 501 548 498 545 500 547 b 538 633 523 569 537 597 b 538 987 538 636 538 987 b 501 1079 538 1026 525 1056 b 401 1111 476 1100 447 1111 l 277 1111 m 347 1052 l 401 1052 b 451 1033 420 1051 440 1045 b 468 987 461 1022 468 1006 l 468 638 b 466 629 468 637 466 630 b 451 593 465 615 459 602 b 401 573 440 580 420 575 l 347 573 l 347 1052 m 347 59 l 347 504 b 404 504 347 504 404 504 b 451 484 423 502 440 497 b 468 440 461 473 468 458 l 468 123 b 451 77 468 105 461 90 b 401 59 440 65 420 59 l 347 59 "},"?":{"x_min":277.78125,"x_max":539,"ha":817,"o":"m 350 988 b 363 1034 350 1006 352 1022 b 409 1052 375 1047 388 1052 b 452 1034 430 1052 443 1047 b 466 988 463 1022 466 1006 b 466 625 466 988 466 694 b 390 427 466 556 390 523 b 390 184 390 330 390 184 l 461 184 b 461 415 461 184 461 323 b 538 602 461 506 538 537 b 538 990 538 668 538 990 b 533 1041 538 1009 540 1026 b 508 1079 527 1055 520 1068 b 466 1104 497 1090 483 1098 b 408 1112 450 1109 430 1112 b 318 1079 363 1112 343 1101 b 277 990 294 1058 277 1029 l 277 604 l 350 604 l 350 988 m 473 44 b 425 -4 473 18 452 -4 b 376 44 398 -4 376 18 b 425 93 376 70 398 93 b 473 44 452 93 473 70 "},"H":{"x_min":277.78125,"x_max":538.890625,"ha":817,"o":"m 469 525 l 347 525 l 347 1112 l 277 1112 l 277 0 l 347 0 l 347 454 l 469 454 l 469 0 l 538 0 l 538 1112 l 469 1112 l 469 525 "},"c":{"x_min":277.671875,"x_max":538.890625,"ha":817,"o":"m 468 123 b 452 77 468 105 463 90 b 406 59 441 65 427 59 b 363 77 386 59 373 65 b 350 123 352 90 350 105 l 350 997 b 363 1041 350 1015 352 1030 b 406 1061 373 1054 386 1061 b 452 1041 427 1061 441 1054 b 468 997 463 1030 468 1015 l 468 681 l 538 681 l 538 997 b 498 1087 538 1036 522 1065 b 408 1120 473 1109 452 1120 b 350 1111 386 1120 368 1116 b 308 1087 333 1105 320 1097 b 283 1048 295 1076 288 1063 b 277 997 276 1034 277 1016 l 277 122 b 283 70 277 102 276 86 b 308 33 288 56 295 44 b 350 8 320 22 333 13 b 408 0 368 2 386 0 b 498 33 452 0 473 11 b 538 122 522 54 538 83 l 538 438 l 468 438 l 468 123 "},"&":{"x_min":277.78125,"x_max":594.4375,"ha":872,"o":"m 519 465 b 519 455 519 463 519 459 b 515 305 519 431 520 372 b 458 480 495 366 476 427 b 423 565 445 515 434 541 b 437 584 427 572 431 577 b 538 840 487 658 538 736 l 538 994 b 420 1122 537 1065 484 1122 l 395 1122 b 279 1012 337 1122 288 1075 l 279 840 l 277 840 b 338 573 280 694 306 641 b 341 570 340 573 340 572 b 277 377 306 513 277 452 b 277 119 277 323 277 125 b 279 106 277 113 279 109 b 281 95 280 104 280 100 l 281 94 b 338 18 293 59 312 33 b 383 2 348 12 363 4 l 386 1 l 387 1 b 394 1 388 1 391 1 b 420 2 408 1 415 1 b 511 54 455 6 486 25 b 522 0 519 20 522 5 l 594 0 b 559 152 594 23 577 90 b 577 225 566 175 572 198 b 591 456 594 322 591 423 b 591 465 591 461 591 463 l 519 465 m 420 1050 b 466 991 445 1050 466 1023 l 466 840 b 387 640 466 763 429 702 b 350 841 365 688 351 736 l 350 991 b 395 1050 350 1023 370 1050 l 420 1050 m 412 73 b 395 73 408 73 400 73 b 390 73 393 73 391 73 b 375 80 386 75 381 76 b 351 113 365 87 356 98 b 351 118 351 115 351 116 b 350 125 351 119 351 122 b 350 377 350 165 350 323 b 377 488 350 418 361 454 b 388 456 381 479 386 468 b 480 170 419 370 452 266 b 484 154 481 165 483 159 b 412 73 462 95 434 77 "},"˝":{"x_min":277.78125,"x_max":404.171875,"ha":682,"o":"m 277 1056 l 277 1191 l 327 1191 l 327 1056 l 277 1056 m 354 1056 l 354 1191 l 404 1191 l 404 1056 l 354 1056 "},"I":{"x_min":277.78125,"x_max":347.21875,"ha":625,"o":"m 277 0 l 277 1112 l 347 1112 l 347 0 l 277 0 "},"G":{"x_min":277.671875,"x_max":538.890625,"ha":817,"o":"m 538 681 l 538 997 b 498 1087 538 1036 522 1065 b 408 1120 473 1109 452 1120 b 350 1111 386 1120 368 1116 b 308 1087 333 1105 320 1097 b 283 1048 295 1076 288 1063 b 277 997 276 1034 277 1016 l 277 122 b 283 70 277 102 276 86 b 308 33 288 56 295 44 b 350 8 320 22 333 13 b 408 0 368 2 386 0 b 498 33 452 0 473 11 b 538 122 522 54 538 83 l 538 529 l 423 529 l 423 458 l 468 458 l 468 123 b 452 77 468 105 463 90 b 406 59 441 65 427 59 b 363 77 386 59 373 65 b 350 123 352 90 350 105 l 350 997 b 363 1041 350 1015 352 1030 b 406 1061 373 1054 386 1061 b 452 1041 427 1061 441 1054 b 468 997 463 1030 468 1015 l 468 681 l 538 681 "},"(":{"x_min":277.78125,"x_max":408.328125,"ha":686,"o":"m 350 1047 b 363 1093 350 1065 354 1080 b 406 1111 375 1105 386 1111 b 408 1170 408 1170 406 1111 b 351 1162 387 1170 368 1168 b 308 1137 334 1156 320 1148 b 283 1100 297 1126 290 1113 b 277 1048 277 1084 277 1068 l 277 70 b 283 19 277 51 277 34 b 308 -18 290 4 297 -8 b 351 -43 320 -29 334 -37 b 408 -51 368 -48 387 -51 b 406 6 406 6 408 -51 b 363 26 386 6 375 13 b 350 72 354 38 350 54 l 350 1047 "},"`":{"x_min":277.78125,"x_max":433.328125,"ha":711,"o":"m 277 1318 l 366 1187 l 433 1187 l 344 1318 l 277 1318 "},"U":{"x_min":277.671875,"x_max":538.890625,"ha":817,"o":"m 468 120 b 452 75 468 102 463 87 b 406 56 441 62 427 56 b 363 75 386 56 373 62 b 350 120 352 87 350 102 l 350 1113 l 277 1113 l 277 119 b 283 68 277 100 276 83 b 308 30 288 54 295 41 b 350 5 320 19 333 11 b 408 -2 368 0 386 -2 b 498 30 452 -2 473 8 b 538 119 522 51 538 80 l 538 1113 l 468 1113 l 468 120 "},"F":{"x_min":277.78125,"x_max":500,"ha":778,"o":"m 500 1112 l 277 1112 l 277 0 l 347 0 l 347 504 l 447 504 l 447 573 l 347 573 l 347 1041 l 500 1041 l 500 1112 "},"r":{"x_min":277.78125,"x_max":538.890625,"ha":817,"o":"m 538 987 b 501 1077 538 1026 525 1056 b 401 1111 476 1100 447 1111 l 277 1111 l 277 0 l 347 0 l 347 504 b 404 504 347 504 404 504 b 451 484 423 502 440 497 b 468 440 461 473 468 458 l 468 0 l 538 0 l 538 450 b 501 540 538 488 525 519 b 497 544 500 541 498 543 b 501 548 498 545 500 547 b 538 638 525 569 538 600 l 538 987 m 401 1052 b 451 1033 420 1051 440 1045 b 468 987 461 1022 468 1006 l 468 638 b 451 593 468 619 461 604 b 401 573 440 580 420 575 l 347 573 l 347 1052 l 401 1052 "},":":{"x_min":277.78125,"x_max":379.171875,"ha":657,"o":"m 379 877 b 327 827 379 850 355 827 b 277 877 300 827 277 850 b 327 927 277 905 300 927 b 379 877 355 927 379 905 m 379 163 b 327 113 379 136 355 113 b 277 163 300 113 277 136 b 327 213 277 191 300 213 b 379 163 355 213 379 191 "},"x":{"x_min":277.78125,"x_max":575,"ha":853,"o":"m 505 1112 l 426 726 l 347 1112 l 277 1112 l 391 555 l 277 0 l 347 0 l 426 384 l 505 0 l 575 0 l 461 555 l 575 1112 l 505 1112 "},"*":{"x_min":341.671875,"x_max":545.828125,"ha":833,"o":"m 545 1033 l 483 1033 l 513 1087 l 473 1111 l 430 1033 l 341 1033 l 341 987 l 404 987 l 373 933 l 413 909 l 458 987 l 545 987 l 545 1033 "},"V":{"x_min":277.78125,"x_max":575,"ha":853,"o":"m 505 1112 l 426 338 l 347 1112 l 277 1112 l 391 0 l 461 0 l 575 1112 l 505 1112 "},"h":{"x_min":277.78125,"x_max":538.890625,"ha":817,"o":"m 469 525 l 347 525 l 347 1112 l 277 1112 l 277 0 l 347 0 l 347 454 l 469 454 l 469 0 l 538 0 l 538 1112 l 469 1112 l 469 525 "},"0":{"x_min":277.671875,"x_max":538.890625,"ha":817,"o":"m 277 122 b 283 70 277 102 276 86 b 308 33 288 56 295 44 b 350 8 320 22 333 13 b 408 0 368 2 386 0 b 498 33 452 0 473 11 b 538 122 522 54 538 83 l 538 997 b 498 1087 538 1036 522 1065 b 408 1120 473 1109 452 1120 b 350 1111 386 1120 368 1118 b 308 1087 333 1105 320 1097 b 283 1048 295 1076 288 1063 b 277 997 276 1034 277 1016 l 277 122 m 468 123 b 452 77 468 105 463 90 b 406 59 441 65 427 59 b 363 77 386 59 373 65 b 350 123 352 90 350 105 l 350 997 b 363 1041 350 1015 352 1030 b 406 1061 373 1054 386 1061 b 452 1041 427 1061 441 1054 b 468 997 463 1030 468 1015 l 468 123 "},".":{"x_min":277.78125,"x_max":377.78125,"ha":656,"o":"m 377 50 b 327 0 377 22 355 0 b 277 50 300 0 277 22 b 327 100 277 77 300 100 b 377 50 355 100 377 77 "},"@":{"x_min":277.78125,"x_max":740.28125,"ha":1018,"o":"m 483 1152 b 277 947 370 1152 277 1061 l 277 165 b 483 -40 277 52 370 -40 l 534 -40 b 648 -5 575 -40 615 -27 l 611 50 b 534 26 588 34 562 26 l 483 26 b 344 165 406 26 344 88 l 344 947 b 483 1086 344 1023 406 1086 l 534 1086 b 673 947 611 1086 673 1023 l 673 233 b 662 194 673 213 669 198 b 647 191 656 190 648 191 b 619 236 629 200 619 218 l 619 877 b 522 984 619 936 575 984 l 504 984 b 406 877 450 984 406 936 l 406 230 b 504 123 406 172 450 123 l 522 123 b 588 152 547 123 570 134 b 619 130 597 144 608 136 b 698 137 636 123 669 119 b 740 233 733 159 740 202 l 740 947 b 534 1152 740 1061 648 1152 l 483 1152 m 504 190 b 473 230 487 190 473 208 l 473 877 b 504 918 473 900 487 918 l 522 918 b 552 877 538 918 552 900 l 552 230 b 522 190 552 208 538 190 l 504 190 "},"f":{"x_min":277.78125,"x_max":500,"ha":778,"o":"m 500 1112 l 277 1112 l 277 0 l 347 0 l 347 504 l 447 504 l 447 573 l 347 573 l 347 1041 l 500 1041 l 500 1112 "},";":{"x_min":277.78125,"x_max":401.390625,"ha":679,"o":"m 351 712 b 401 763 379 712 401 736 b 351 813 401 791 379 813 b 300 763 323 813 300 791 b 351 712 300 736 323 712 m 351 100 b 300 50 323 100 300 77 b 326 6 300 30 311 15 b 322 -1 325 4 323 1 b 277 -58 302 -34 277 -58 b 390 18 277 -58 354 -38 b 401 50 397 27 401 37 b 351 100 401 77 379 100 "},"i":{"x_min":277.78125,"x_max":347.21875,"ha":625,"o":"m 277 0 l 277 1112 l 347 1112 l 347 0 l 277 0 "},"6":{"x_min":277.671875,"x_max":539,"ha":815,"o":"m 350 997 b 363 1041 350 1015 352 1030 b 406 1061 373 1054 386 1061 b 408 1061 406 1061 408 1061 b 409 1061 408 1061 409 1061 b 452 1041 430 1061 443 1054 b 466 997 463 1030 466 1015 l 466 781 l 538 781 l 538 997 b 533 1048 538 1016 540 1034 b 508 1087 527 1063 520 1076 b 466 1111 495 1097 483 1105 b 408 1120 448 1118 430 1120 b 350 1111 386 1120 368 1118 b 308 1087 333 1105 320 1097 b 283 1048 295 1076 288 1063 b 277 997 276 1034 277 1016 l 277 151 b 283 72 277 133 277 87 b 308 33 290 56 295 44 b 350 8 320 22 333 13 b 408 0 368 2 386 0 b 466 8 430 0 448 2 b 508 33 483 13 495 22 b 533 72 520 44 526 56 b 538 151 538 87 538 133 l 538 515 b 533 566 538 534 540 551 b 508 604 527 580 520 594 b 466 629 495 615 483 623 b 408 637 448 634 430 637 b 350 629 386 637 368 634 l 350 997 m 350 513 b 363 559 350 531 352 547 b 406 577 373 572 386 577 b 408 577 406 577 408 577 b 409 577 408 577 409 577 b 452 559 430 577 443 572 b 466 513 463 547 466 531 l 466 123 b 452 77 466 105 463 90 b 409 59 443 65 430 59 b 408 59 409 59 408 59 b 406 59 408 59 406 59 b 363 77 386 59 373 65 b 350 123 352 90 350 105 l 350 513 "},"A":{"x_min":277.78125,"x_max":541.671875,"ha":819,"o":"m 541 0 l 444 1112 l 375 1112 l 277 0 l 347 0 l 363 190 l 455 190 l 472 0 l 541 0 m 409 711 l 450 259 l 370 259 l 409 711 "},"n":{"x_min":277.78125,"x_max":538.890625,"ha":817,"o":"m 469 408 l 347 1112 l 277 1112 l 277 0 l 347 0 l 347 704 l 469 0 l 538 0 l 538 1112 l 469 1112 l 469 408 "},"O":{"x_min":277.671875,"x_max":538.890625,"ha":817,"o":"m 277 118 b 283 66 277 98 276 81 b 308 29 288 52 295 40 b 350 4 320 18 333 9 b 408 -4 368 -1 386 -4 b 498 29 452 -4 473 6 b 538 118 522 50 538 79 l 538 993 b 498 1083 538 1031 522 1061 b 408 1116 473 1105 452 1116 b 350 1106 386 1116 368 1113 b 308 1083 333 1101 320 1093 b 283 1044 295 1072 288 1059 b 277 993 276 1030 277 1012 l 277 118 m 468 119 b 452 73 468 101 463 86 b 406 55 441 61 427 55 b 363 73 386 55 373 61 b 350 119 352 86 350 101 l 350 993 b 363 1037 350 1011 352 1026 b 406 1056 373 1050 386 1056 b 452 1037 427 1056 441 1050 b 468 993 463 1026 468 1011 l 468 119 "},"3":{"x_min":277.671875,"x_max":539,"ha":817,"o":"m 538 997 b 533 1048 538 1016 540 1034 b 508 1087 527 1063 520 1076 b 466 1111 495 1097 483 1105 b 408 1120 448 1118 430 1120 b 350 1111 386 1120 368 1118 b 308 1087 333 1105 320 1097 b 283 1048 295 1076 288 1063 b 277 997 276 1034 277 1016 l 277 775 l 350 775 l 350 997 b 363 1041 350 1015 352 1030 b 406 1061 373 1054 386 1061 b 408 1061 406 1061 408 1061 b 409 1061 408 1061 409 1061 b 452 1041 430 1061 443 1054 b 466 997 463 1030 466 1015 l 466 687 b 452 648 466 672 462 658 b 406 629 441 636 427 629 b 400 630 404 629 402 629 l 400 568 b 406 569 402 569 404 569 b 452 550 427 569 441 562 b 466 509 462 538 466 525 l 466 123 b 452 77 466 105 463 90 b 409 59 443 65 430 59 b 408 59 409 59 408 59 b 406 59 408 59 406 59 b 363 77 386 59 373 65 b 350 123 352 90 350 105 l 350 381 l 277 381 l 277 141 b 283 72 277 119 279 84 b 308 33 290 56 295 44 b 350 8 320 22 333 13 b 408 0 368 2 386 0 b 466 8 430 0 448 2 b 508 33 483 13 495 22 b 533 72 520 44 526 56 b 538 151 538 87 538 133 l 538 512 b 498 595 536 548 520 575 b 494 600 497 597 495 598 b 498 602 495 601 497 601 b 538 684 520 623 536 650 l 538 997 "},"]":{"x_min":277.78125,"x_max":408.328125,"ha":686,"o":"m 277 1170 l 277 1097 l 336 1097 l 336 20 l 277 20 l 277 -52 l 408 -52 l 408 1170 l 277 1170 "},"m":{"x_min":277.78125,"x_max":620.828125,"ha":899,"o":"m 450 284 l 347 1112 l 277 1112 l 277 0 l 347 0 l 347 541 l 413 0 l 484 0 l 551 541 l 551 0 l 620 0 l 620 1112 l 551 1112 l 450 284 "},"9":{"x_min":277.671875,"x_max":540.75,"ha":818,"o":"m 277 601 b 283 550 277 581 276 563 b 308 511 288 534 295 522 b 350 487 320 501 333 493 b 408 477 368 480 386 477 b 441 480 419 477 430 479 l 277 0 l 347 0 l 530 533 b 538 573 533 543 537 555 b 538 963 543 656 538 963 b 533 1044 538 983 538 1029 b 508 1083 526 1058 520 1072 b 466 1106 495 1093 483 1101 b 408 1116 448 1112 430 1116 b 350 1106 386 1116 368 1112 b 308 1083 333 1101 320 1093 b 283 1044 295 1072 290 1058 b 277 963 277 1029 277 983 l 277 601 m 350 993 b 363 1037 350 1011 352 1026 b 406 1056 373 1050 386 1056 b 408 1056 406 1056 408 1056 b 409 1056 408 1056 409 1056 b 452 1037 430 1056 443 1050 b 466 993 463 1026 466 1011 l 466 601 b 452 556 466 583 463 568 b 409 537 443 544 430 537 b 408 537 409 537 408 537 b 406 537 408 537 406 537 b 363 556 386 537 373 544 b 350 601 352 568 350 583 l 350 993 "},"l":{"x_min":277.78125,"x_max":497.21875,"ha":775,"o":"m 347 1112 l 277 1112 l 277 0 l 497 0 l 497 69 l 347 69 l 347 1112 "},"8":{"x_min":277.671875,"x_max":539,"ha":817,"o":"m 538 997 b 533 1048 538 1016 540 1034 b 508 1087 527 1063 520 1076 b 466 1111 495 1097 483 1105 b 408 1120 448 1118 430 1120 b 350 1111 386 1120 368 1118 b 308 1087 333 1105 320 1097 b 283 1048 295 1076 288 1063 b 277 997 276 1034 277 1016 l 277 722 b 283 641 277 702 277 656 b 308 604 290 627 295 613 b 312 600 309 602 311 601 b 308 595 311 598 309 597 b 283 556 295 584 288 572 b 277 505 276 543 277 525 l 277 151 b 283 72 277 133 277 87 b 308 33 290 56 295 44 b 350 8 320 22 333 13 b 408 0 368 2 386 0 b 466 8 430 0 448 2 b 508 33 483 13 495 22 b 533 72 520 44 526 56 b 538 151 538 87 538 133 l 538 505 b 533 556 538 525 540 543 b 508 595 527 572 520 584 b 504 600 506 597 505 598 b 508 604 505 601 506 602 b 533 641 520 613 526 627 b 538 722 538 656 538 702 l 538 997 m 466 693 b 452 648 466 675 463 659 b 409 629 443 636 430 629 b 408 629 409 629 408 629 b 406 629 408 629 406 629 b 363 648 386 629 373 636 b 350 693 352 659 350 675 l 350 997 b 363 1041 350 1015 352 1030 b 406 1061 373 1054 386 1061 b 408 1061 406 1061 408 1061 b 409 1061 408 1061 409 1061 b 452 1041 430 1061 443 1054 b 466 997 463 1030 466 1015 l 466 693 m 350 505 b 363 550 350 523 352 538 b 406 569 373 562 386 569 b 408 569 406 569 408 569 b 409 569 408 569 409 569 b 452 550 430 569 443 562 b 466 505 463 538 466 523 l 466 123 b 452 77 466 105 463 90 b 409 59 443 65 430 59 b 408 59 409 59 408 59 b 406 59 408 59 406 59 b 363 77 386 59 373 65 b 350 123 352 90 350 105 l 350 505 "},"p":{"x_min":277.78125,"x_max":538.890625,"ha":817,"o":"m 277 1111 l 277 0 l 347 0 l 347 504 l 401 504 b 501 537 447 504 476 515 b 538 627 525 559 538 588 l 538 987 b 501 1077 538 1026 525 1056 b 401 1111 476 1100 447 1111 l 277 1111 m 468 638 b 451 593 468 619 461 604 b 401 573 440 580 420 575 l 347 573 l 347 1052 l 401 1052 b 451 1033 420 1051 440 1045 b 468 987 461 1022 468 1006 l 468 638 "},"4":{"x_min":277.78125,"x_max":538.890625,"ha":817,"o":"m 468 548 l 347 548 l 347 1111 l 277 1111 l 277 477 l 468 477 l 468 0 l 538 0 l 538 1111 l 468 1111 l 468 548 "},"R":{"x_min":277.78125,"x_max":538.890625,"ha":817,"o":"m 538 987 b 501 1077 538 1026 525 1056 b 401 1111 476 1100 447 1111 l 277 1111 l 277 0 l 347 0 l 347 504 b 404 504 347 504 404 504 b 451 484 423 502 440 497 b 468 440 461 473 468 458 l 468 0 l 538 0 l 538 450 b 501 540 538 488 525 519 b 497 544 500 541 498 543 b 501 548 498 545 500 547 b 538 638 525 569 538 600 l 538 987 m 401 1052 b 451 1033 420 1051 440 1045 b 468 987 461 1022 468 1006 l 468 638 b 451 593 468 619 461 604 b 401 573 440 580 420 575 l 347 573 l 347 1052 l 401 1052 "},"o":{"x_min":277.671875,"x_max":538.890625,"ha":817,"o":"m 277 118 b 283 66 277 98 276 81 b 308 29 288 52 295 40 b 350 4 320 18 333 9 b 408 -4 368 -1 386 -4 b 498 29 452 -4 473 6 b 538 118 522 50 538 79 l 538 993 b 498 1083 538 1031 522 1061 b 408 1116 473 1105 452 1116 b 350 1106 386 1116 368 1113 b 308 1083 333 1101 320 1093 b 283 1044 295 1072 288 1059 b 277 993 276 1030 277 1012 l 277 118 m 468 119 b 452 73 468 101 463 86 b 406 55 441 61 427 55 b 363 73 386 55 373 61 b 350 119 352 86 350 101 l 350 993 b 363 1037 350 1011 352 1026 b 406 1056 373 1050 386 1056 b 452 1037 427 1056 441 1050 b 468 993 463 1026 468 1011 l 468 119 "},"5":{"x_min":277.78125,"x_max":538.890625,"ha":817,"o":"m 538 1120 l 277 1120 l 277 577 l 406 577 b 452 558 427 577 441 570 b 466 519 462 547 466 534 l 466 123 b 452 77 466 105 462 90 b 409 59 443 65 430 59 b 408 59 409 59 408 59 b 406 59 408 59 406 59 b 363 77 386 59 373 65 b 350 123 352 90 350 105 l 350 381 l 277 381 l 277 151 b 283 72 277 133 277 87 b 308 33 290 56 295 44 b 350 8 319 22 333 13 b 408 0 366 2 386 0 b 466 8 430 0 448 2 b 508 33 483 13 495 22 b 531 72 520 44 526 56 b 538 151 538 87 538 133 l 538 512 b 498 604 538 551 522 581 b 413 637 475 625 454 636 l 350 637 l 350 1061 l 538 1061 l 538 1120 "}}}
